<?xml version="1.0" encoding="utf-8"?>
<!-- Generator: Adobe Illustrator 16.0.0, SVG Export Plug-In . SVG Version: 6.00 Build 0)  -->
<!DOCTYPE svg PUBLIC "-//W3C//DTD SVG 1.1//EN" "http://www.w3.org/Graphics/SVG/1.1/DTD/svg11.dtd">
<svg version="1.1" id="OBJECTS" xmlns="http://www.w3.org/2000/svg" xmlns:xlink="http://www.w3.org/1999/xlink" x="0px" y="0px"
	 width="40px" height="40px" viewBox="0 0 40 40" enable-background="new 0 0 40 40" xml:space="preserve">
<g>
	<circle fill-rule="evenodd" clip-rule="evenodd" fill="#22A85B" cx="20" cy="20" r="20"/>
	<g>
		<defs>
			<circle id="SVGID_1_" cx="20" cy="20" r="20"/>
		</defs>
		<clipPath id="SVGID_2_">
			<use xlink:href="#SVGID_1_"  overflow="visible"/>
		</clipPath>
		<g clip-path="url(#SVGID_2_)">
			<g>
				<path fill-rule="evenodd" clip-rule="evenodd" fill="#FEC49C" d="M24.11,28.561c-0.178,0.796-0.374,2.584-0.062,3.427
					c0.116,0.313,6.171,2.636,6.89,2.923c1.501,0.599,2.822,1.215,3.387,1.83c0.638,0.696,1.117,1.912,1.117,3.531
					c-12.248,0-18.658,0-30.885,0c0-1.619,0.479-2.835,1.117-3.531c0.564-0.615,1.886-1.231,3.387-1.83
					c0.718-0.287,6.773-2.609,6.89-2.923c0.313-0.843,0.115-2.631-0.063-3.427C20.802,25.965,19.162,25.945,24.11,28.561z"/>
				<path fill-rule="evenodd" clip-rule="evenodd" fill="#D2A588" d="M25.646,32.787c0,0-1.681,2.388-2.994,2.532
					c-1.969,0.216-2.433-0.441-3.733-1.729c-1.087-1.074-2.4-2.502-2.824-3.495c0,0-0.228-1.953-0.372-2.284
					c-0.145-0.332,3.653-1.742,3.653-1.742l3.839-0.072l0.896,2.564c0,0-0.482,2.404-0.062,3.427L25.646,32.787z"/>
				<g>
					<path fill-rule="evenodd" clip-rule="evenodd" fill="#FEC49C" d="M13.497,23.41c0,0-1.167,0.357-2.007-0.627
						c-0.841-0.986-2.373-5.577,1.208-4.938L13.497,23.41z"/>
					<path fill-rule="evenodd" clip-rule="evenodd" fill="#FEC49C" d="M26.313,23.41c0,0,1.167,0.357,2.008-0.627
						c0.84-0.986,2.372-5.577-1.209-4.938L26.313,23.41z"/>
					<path fill-rule="evenodd" clip-rule="evenodd" fill="#FEC49C" d="M23.959,29.348c-3.52,3.788-4.577,3.788-8.097,0
						c-2.34-2.52-2.743-5.156-2.903-8.246c-0.144-2.801-0.918-6.655,0.617-8.49c2.411-2.88,10.259-2.88,12.669,0
						c1.535,1.835,0.762,5.688,0.617,8.49C26.703,24.191,26.299,26.828,23.959,29.348z"/>
				</g>
			</g>
			<path fill-rule="evenodd" clip-rule="evenodd" fill="#353634" d="M12.334,20.721h0.6c0,0-1-7.563,1.886-9.116
				c2.886-1.554,11.495,1.044,12.274,3.199l-0.208,5.902h0.642l0.723-2.867c0,0,0.561-4.768,0.422-5.219s-0.104-3.957-7.913-5.9
				c0,0-6.039-1.284-8.19,3.124c0,0-0.304,0.794-0.199,1.832c0,0-1.397,0.182-1.293,2.611C11.18,16.715,12.334,20.721,12.334,20.721
				z"/>
			<path fill-rule="evenodd" clip-rule="evenodd" fill="#E07F0B" d="M25.385,32.656c1.854,0.808,5.044,2.05,5.554,2.254
				c1.501,0.598,2.822,1.215,3.387,1.83c0.638,0.696,1.117,1.912,1.117,3.531c-12.248,0-18.658,0-30.885,0
				c0-1.619,0.479-2.835,1.117-3.531c0.564-0.615,1.886-1.231,3.387-1.83c0.513-0.205,3.75-1.449,5.6-2.258
				c0.946,2.221,2.994,3.757,5.36,3.757C22.389,36.409,24.435,34.867,25.385,32.656z"/>
			<path fill-rule="evenodd" clip-rule="evenodd" fill="#FFFFFF" d="M25.914,32.883c-0.969,2.469-3.306,4.1-5.893,4.1
				c-2.592,0-4.929-1.623-5.894-4.101l0.533-0.229c1.066,2.102,2.848,3.74,5.391,3.74s4.397-1.654,5.333-3.736L25.914,32.883z"/>
		</g>
	</g>
</g>
</svg>
