<?xml version="1.0" encoding="utf-8"?>
<!-- Generator: Adobe Illustrator 16.0.0, SVG Export Plug-In . SVG Version: 6.00 Build 0)  -->
<!DOCTYPE svg PUBLIC "-//W3C//DTD SVG 1.1//EN" "http://www.w3.org/Graphics/SVG/1.1/DTD/svg11.dtd">
<svg version="1.1" id="Layer_1" xmlns="http://www.w3.org/2000/svg" xmlns:xlink="http://www.w3.org/1999/xlink" x="0px" y="0px"
	 width="20px" height="20px" viewBox="0 0 20 20" enable-background="new 0 0 20 20" xml:space="preserve">
<path fill="#FFFFFF" d="M0.372,2.962h2.268C2.818,4.217,3.9,5.186,5.204,5.186c1.303,0,2.383-0.968,2.563-2.223h11.861
	c0.205,0,0.37-0.165,0.37-0.371c0-0.205-0.165-0.369-0.37-0.369H7.767C7.586,0.968,6.507,0,5.204,0C3.898,0,2.816,0.968,2.639,2.223
	H0.372C0.165,2.223,0,2.387,0,2.592C0,2.798,0.165,2.962,0.372,2.962z M5.186,0.794c0.995,0,1.802,0.807,1.802,1.802
	c0,0.996-0.807,1.803-1.802,1.803c-0.996,0-1.803-0.807-1.803-1.803C3.383,1.602,4.19,0.794,5.186,0.794z"/>
<path fill="#FFFFFF" d="M19.628,17.024H7.767c-0.18-1.254-1.26-2.223-2.563-2.223c-1.306,0-2.387,0.969-2.564,2.223H0.372
	C0.165,17.024,0,17.188,0,17.393s0.165,0.372,0.372,0.372h2.268c0.179,1.255,1.261,2.223,2.564,2.223
	c1.303,0,2.383-0.968,2.563-2.223h11.861c0.205,0,0.37-0.167,0.37-0.372S19.833,17.024,19.628,17.024z M5.205,19.205
	c-0.996,0-1.803-0.806-1.803-1.803c0-0.995,0.807-1.802,1.803-1.802c0.995,0,1.802,0.807,1.802,1.802
	C7.006,18.399,6.2,19.205,5.205,19.205z"/>
<path fill="#FFFFFF" d="M19.628,9.7h-6.9c-0.147-1.334-1.278-2.375-2.651-2.375c-1.373,0-2.506,1.042-2.653,2.375H0.371
	C0.166,9.7,0,9.864,0,10.07c0,0.204,0.166,0.371,0.371,0.371h7.076c0.214,1.259,1.311,2.222,2.63,2.222s2.415-0.963,2.627-2.222
	h6.924c0.205,0,0.37-0.166,0.37-0.371C19.998,9.864,19.833,9.7,19.628,9.7z M10.015,11.928c-1.065,0-1.928-0.862-1.928-1.928
	c0-1.064,0.863-1.926,1.928-1.926c1.064,0,1.927,0.862,1.927,1.926C11.941,11.065,11.079,11.928,10.015,11.928z"/>
</svg>
